<svg xmlns="http://www.w3.org/2000/svg" version="1.1" xmlns:xlink="http://www.w3.org/1999/xlink" xmlns:svgjs="http://svgjs.dev/svgjs" width="2000" height="424" viewBox="0 0 2000 424"><g transform="matrix(1,0,0,1,-1.2121212121212466,-2.4890837460064006)"><svg viewBox="0 0 396 84" data-background-color="#ffffff" preserveAspectRatio="xMidYMid meet" height="424" width="2000" xmlns="http://www.w3.org/2000/svg" xmlns:xlink="http://www.w3.org/1999/xlink"><g id="tight-bounds" transform="matrix(1,0,0,1,0.2400000000000091,0.4931203647748532)"><svg viewBox="0 0 395.52 83.01375927045031" height="83.01375927045031" width="395.52"><g><svg viewBox="0 0 548.5733499454241 115.13737867757365" height="83.01375927045031" width="395.52"><g transform="matrix(1,0,0,1,153.0533499454241,24.76863387951473)"><svg viewBox="0 0 395.52 65.60011091854419" height="65.60011091854419" width="395.52"><g id="textblocktransform"><svg viewBox="0 0 395.52 65.60011091854419" height="65.60011091854419" width="395.52" id="textblock"><g><svg viewBox="0 0 395.52 65.60011091854419" height="65.60011091854419" width="395.52"><g transform="matrix(1,0,0,1,0,0)"><svg width="395.52" viewBox="5.25 -37.85 288.48 47.85" height="65.60011091854419" data-palette-color="#ffffff"><path d="M28.8-18.15Q31.85-17.3 33.6-15.08 35.35-12.85 35.35-9.45L35.35-9.45Q35.35-4.9 31.93-2.45 28.5 0 21.95 0L21.95 0 5.25 0 5.25-35 20.95-35Q26.95-35 30.23-32.6 33.5-30.2 33.5-25.95L33.5-25.95Q33.5-23.2 32.23-21.2 30.95-19.2 28.8-18.15L28.8-18.15ZM20.5-30.95L10.25-30.95 10.25-19.75 20.5-19.75Q24.35-19.75 26.43-21.18 28.5-22.6 28.5-25.35L28.5-25.35Q28.5-28.1 26.43-29.53 24.35-30.95 20.5-30.95L20.5-30.95ZM21.75-4.05Q26-4.05 28.15-5.45 30.3-6.85 30.3-9.85L30.3-9.85Q30.3-15.7 21.75-15.7L21.75-15.7 10.25-15.7 10.25-4.05 21.75-4.05ZM54.35-3.9Q59.1-3.9 62-7.1L62-7.1 64.6-4Q62.85-1.9 60.17-0.8 57.5 0.3 54.2 0.3L54.2 0.3Q50 0.3 46.75-1.43 43.5-3.15 41.72-6.25 39.95-9.35 39.95-13.25L39.95-13.25Q39.95-17.1 41.67-20.2 43.4-23.3 46.42-25.03 49.45-26.75 53.25-26.75L53.25-26.75Q56.85-26.75 59.8-25.13 62.75-23.5 64.5-20.55 66.25-17.6 66.3-13.75L66.3-13.75 45.25-9.65Q46.25-6.9 48.62-5.4 51-3.9 54.35-3.9L54.35-3.9ZM53.25-22.7Q50.75-22.7 48.77-21.55 46.8-20.4 45.7-18.32 44.6-16.25 44.6-13.5L44.6-13.5 44.6-13 61.55-16.2Q60.9-19.1 58.65-20.9 56.4-22.7 53.25-22.7L53.25-22.7ZM87.15-26.75Q92.2-26.75 95.17-23.83 98.15-20.9 98.15-15.25L98.15-15.25 98.15 0 93.35 0 93.35-14.7Q93.35-18.55 91.5-20.5 89.65-22.45 86.2-22.45L86.2-22.45Q82.3-22.45 80.05-20.18 77.8-17.9 77.8-13.65L77.8-13.65 77.8 0 73 0 73-26.5 77.6-26.5 77.6-22.5Q79.05-24.55 81.52-25.65 84-26.75 87.15-26.75L87.15-26.75ZM114.64 0.3Q111.39 0.3 108.39-0.58 105.39-1.45 103.69-2.8L103.69-2.8 105.69-6.6Q107.44-5.35 109.94-4.6 112.44-3.85 114.99-3.85L114.99-3.85Q121.29-3.85 121.29-7.45L121.29-7.45Q121.29-8.65 120.44-9.35 119.59-10.05 118.32-10.38 117.04-10.7 114.69-11.1L114.69-11.1Q111.49-11.6 109.47-12.25 107.44-12.9 105.99-14.45 104.54-16 104.54-18.8L104.54-18.8Q104.54-22.4 107.54-24.58 110.54-26.75 115.59-26.75L115.59-26.75Q118.24-26.75 120.89-26.1 123.54-25.45 125.24-24.35L125.24-24.35 123.19-20.55Q119.94-22.65 115.54-22.65L115.54-22.65Q112.49-22.65 110.89-21.65 109.29-20.65 109.29-19L109.29-19Q109.29-17.7 110.19-16.95 111.09-16.2 112.42-15.85 113.74-15.5 116.14-15.05L116.14-15.05Q119.34-14.5 121.32-13.88 123.29-13.25 124.69-11.75 126.09-10.25 126.09-7.55L126.09-7.55Q126.09-3.95 123.02-1.83 119.94 0.3 114.64 0.3L114.64 0.3ZM152.29-26.5L157.09-26.5 157.09 0 152.49 0 152.49-4.2Q150.89-2 148.44-0.85 145.99 0.3 143.04 0.3L143.04 0.3Q139.19 0.3 136.14-1.4 133.09-3.1 131.37-6.18 129.64-9.25 129.64-13.25L129.64-13.25Q129.64-17.25 131.37-20.3 133.09-23.35 136.14-25.05 139.19-26.75 143.04-26.75L143.04-26.75Q145.89-26.75 148.29-25.68 150.69-24.6 152.29-22.5L152.29-22.5 152.29-26.5ZM143.44-3.9Q145.94-3.9 147.99-5.08 150.04-6.25 151.19-8.38 152.34-10.5 152.34-13.25L152.34-13.25Q152.34-16 151.19-18.13 150.04-20.25 147.99-21.4 145.94-22.55 143.44-22.55L143.44-22.55Q140.89-22.55 138.87-21.4 136.84-20.25 135.67-18.13 134.49-16 134.49-13.25L134.49-13.25Q134.49-10.5 135.67-8.38 136.84-6.25 138.87-5.08 140.89-3.9 143.44-3.9L143.44-3.9ZM170.79-22.05Q172.04-24.35 174.49-25.55 176.94-26.75 180.44-26.75L180.44-26.75 180.44-22.1Q180.04-22.15 179.34-22.15L179.34-22.15Q175.44-22.15 173.21-19.83 170.99-17.5 170.99-13.2L170.99-13.2 170.99 0 166.19 0 166.19-26.5 170.79-26.5 170.79-22.05ZM206.89-26.5L211.44-26.5 211.44-3.6Q211.44 3.35 207.99 6.68 204.54 10 197.69 10L197.69 10Q193.94 10 190.54 8.97 187.14 7.95 185.04 6.05L185.04 6.05 187.34 2.35Q189.19 3.95 191.91 4.88 194.64 5.8 197.54 5.8L197.54 5.8Q202.19 5.8 204.41 3.6 206.64 1.4 206.64-3.1L206.64-3.1 206.64-5.2Q204.94-3.15 202.46-2.13 199.99-1.1 197.09-1.1L197.09-1.1Q193.29-1.1 190.21-2.73 187.14-4.35 185.39-7.28 183.64-10.2 183.64-13.95L183.64-13.95Q183.64-17.7 185.39-20.63 187.14-23.55 190.21-25.15 193.29-26.75 197.09-26.75L197.09-26.75Q200.09-26.75 202.66-25.65 205.24-24.55 206.89-22.4L206.89-22.4 206.89-26.5ZM197.64-5.3Q200.24-5.3 202.31-6.4 204.39-7.5 205.56-9.47 206.74-11.45 206.74-13.95L206.74-13.95Q206.74-17.8 204.19-20.18 201.64-22.55 197.64-22.55L197.64-22.55Q193.59-22.55 191.04-20.18 188.49-17.8 188.49-13.95L188.49-13.95Q188.49-11.45 189.66-9.47 190.84-7.5 192.91-6.4 194.99-5.3 197.64-5.3L197.64-5.3ZM234.73-26.75Q239.78-26.75 242.76-23.83 245.73-20.9 245.73-15.25L245.73-15.25 245.73 0 240.93 0 240.93-14.7Q240.93-18.55 239.08-20.5 237.23-22.45 233.78-22.45L233.78-22.45Q229.88-22.45 227.63-20.18 225.38-17.9 225.38-13.65L225.38-13.65 225.38 0 220.58 0 220.58-37.1 225.38-37.1 225.38-22.75Q226.88-24.65 229.31-25.7 231.73-26.75 234.73-26.75L234.73-26.75ZM254.63 0L254.63-26.5 259.43-26.5 259.43 0 254.63 0ZM257.03-31.6Q255.63-31.6 254.71-32.5 253.78-33.4 253.78-34.7L253.78-34.7Q253.78-36 254.71-36.93 255.63-37.85 257.03-37.85L257.03-37.85Q258.43-37.85 259.36-36.98 260.28-36.1 260.28-34.8L260.28-34.8Q260.28-33.45 259.36-32.52 258.43-31.6 257.03-31.6L257.03-31.6ZM282.73-26.75Q287.78-26.75 290.75-23.83 293.73-20.9 293.73-15.25L293.73-15.25 293.73 0 288.93 0 288.93-14.7Q288.93-18.55 287.08-20.5 285.23-22.45 281.78-22.45L281.78-22.45Q277.88-22.45 275.63-20.18 273.38-17.9 273.38-13.65L273.38-13.65 273.38 0 268.58 0 268.58-26.5 273.18-26.5 273.18-22.5Q274.63-24.55 277.1-25.65 279.58-26.75 282.73-26.75L282.73-26.75Z" opacity="1" transform="matrix(1,0,0,1,0,0)" fill="#ffffff" class="wordmark-text-0" data-fill-palette-color="primary" id="text-0"></path></svg></g></svg></g></svg></g></svg></g><g><svg viewBox="0 0 137.56673816021785 115.13737867757365" height="115.13737867757365" width="137.56673816021785"><g><svg xmlns:dc="http://purl.org/dc/elements/1.1/" xmlns:cc="http://creativecommons.org/ns#" xmlns:rdf="http://www.w3.org/1999/02/22-rdf-syntax-ns#" xmlns:svg="http://www.w3.org/2000/svg" xmlns="http://www.w3.org/2000/svg" xmlns:sodipodi="http://sodipodi.sourceforge.net/DTD/sodipodi-0.dtd" xmlns:inkscape="http://www.inkscape.org/namespaces/inkscape" version="1.1" x="0" y="0" viewBox="18 25.5 92 77" enable-background="new 0 0 128 128" xml:space="preserve" height="115.13737867757365" width="137.56673816021785" class="icon-icon-0" data-fill-palette-color="accent" id="icon-0"><path d="M24 25.5C20.7 25.5 18 28.2 18 31.5V96.5C18 99.8 20.7 102.5 24 102.5H104C107.3 102.5 110 99.8 110 96.5V31.5C110 28.2 107.3 25.5 104 25.5zM24 27.5H104C106.2 27.5 108 29.3 108 31.5V37.2H96.8C96.5 37.2 96.3 37.3 96.1 37.5S95.8 37.9 95.8 38.2V71.4L87.7 63.3C87.3 62.9 86.7 62.9 86.3 63.3L78.2 71.4V38.2C78.2 37.9 78.1 37.7 77.9 37.5S77.5 37.2 77.2 37.2H20V31.5C20 29.3 21.8 27.5 24 27.5M24.6 31C23.8 31 23.1 31.7 23.1 32.5S23.8 34 24.6 34 26.1 33.3 26.1 32.5 25.4 31 24.6 31M30 31C29.1 31 28.5 31.7 28.5 32.5S29.2 34 30 34 31.5 33.3 31.5 32.5 30.9 31 30 31M35.4 31C34.6 31 33.9 31.7 33.9 32.5S34.6 34 35.4 34 36.9 33.3 36.9 32.5 36.2 31 35.4 31M24.6 32C24.8 32 25.1 32.2 25.1 32.5S24.9 33 24.6 33 24.1 32.8 24.1 32.5 24.3 32 24.6 32M30 32C30.2 32 30.5 32.2 30.5 32.5S30.3 33 30 33 29.5 32.8 29.5 32.5 29.7 32 30 32M35.4 32C35.6 32 35.9 32.2 35.9 32.5S35.7 33 35.4 33 34.9 32.8 34.9 32.5 35.1 32 35.4 32M20 39.2H76.2V73.8C76.2 74.2 76.4 74.5 76.8 74.7S77.6 74.8 77.9 74.5L87 65.4 96.1 74.5C96.3 74.7 96.5 74.8 96.8 74.8 96.9 74.8 97 74.7 97.2 74.7 97.6 74.6 97.8 74.2 97.8 73.8V39.2H108V96.5C108 98.7 106.2 100.5 104 100.5H24C21.8 100.5 20 98.7 20 96.5z" fill="#5d60a9" data-fill-palette-color="accent"></path><path d="M63 73.7" fill="#5d60a9" data-fill-palette-color="accent"></path><path d="M67.8 53.4" fill="#5d60a9" data-fill-palette-color="accent"></path><path d="M72.8 78.3" fill="#5d60a9" data-fill-palette-color="accent"></path><path d="M61.1 68.5" fill="#5d60a9" data-fill-palette-color="accent"></path><path d="M51.3 58.4" fill="#5d60a9" data-fill-palette-color="accent"></path><path d="M90.7 69.5" fill="#5d60a9" data-fill-palette-color="accent"></path><path d="M37.3 69.5" fill="#5d60a9" data-fill-palette-color="accent"></path></svg></g></svg></g></svg></g><defs></defs></svg><rect width="395.52" height="83.01375927045031" fill="none" stroke="none" visibility="hidden"></rect></g></svg></g></svg>