<svg xmlns="http://www.w3.org/2000/svg" version="1.1" xmlns:xlink="http://www.w3.org/1999/xlink" xmlns:svgjs="http://svgjs.dev/svgjs" width="128" height="128" viewBox="0 0 128 128"><g transform="matrix(0.8046875,0,0,0.8046875,12.221578124999994,21.30541990382983)"><svg viewBox="0 0 96 80" data-background-color="#ffffff" preserveAspectRatio="xMidYMid meet" height="106" width="128" xmlns="http://www.w3.org/2000/svg" xmlns:xlink="http://www.w3.org/1999/xlink"><g id="tight-bounds" transform="matrix(1,0,0,1,0.25950000000000273,0.0432771739130402)"><svg viewBox="0 0 95.481 79.91344565217392" height="79.91344565217392" width="95.481"><g><svg viewBox="0 0 95.481 79.91344565217392" height="79.91344565217392" width="95.481"><g><svg viewBox="0 0 95.481 79.91344565217392" height="79.91344565217392" width="95.481"><g id="textblocktransform"><svg viewBox="0 0 95.481 79.91344565217392" height="79.91344565217392" width="95.481" id="textblock"><g><svg viewBox="0 0 95.481 79.91344565217392" height="79.91344565217392" width="95.481"><g><svg viewBox="0 0 95.481 79.91344565217392" height="79.91344565217392" width="95.481"><g><svg xmlns:dc="http://purl.org/dc/elements/1.1/" xmlns:cc="http://creativecommons.org/ns#" xmlns:rdf="http://www.w3.org/1999/02/22-rdf-syntax-ns#" xmlns:svg="http://www.w3.org/2000/svg" xmlns="http://www.w3.org/2000/svg" xmlns:sodipodi="http://sodipodi.sourceforge.net/DTD/sodipodi-0.dtd" xmlns:inkscape="http://www.inkscape.org/namespaces/inkscape" version="1.1" x="0" y="0" viewBox="18 25.5 92 77" enable-background="new 0 0 128 128" xml:space="preserve" height="79.91344565217392" width="95.481" class="icon-icon-0" data-fill-palette-color="accent" id="icon-0"><path d="M24 25.5C20.7 25.5 18 28.2 18 31.5V96.5C18 99.8 20.7 102.5 24 102.5H104C107.3 102.5 110 99.8 110 96.5V31.5C110 28.2 107.3 25.5 104 25.5zM24 27.5H104C106.2 27.5 108 29.3 108 31.5V37.2H96.8C96.5 37.2 96.3 37.3 96.1 37.5S95.8 37.9 95.8 38.2V71.4L87.7 63.3C87.3 62.9 86.7 62.9 86.3 63.3L78.2 71.4V38.2C78.2 37.9 78.1 37.7 77.9 37.5S77.5 37.2 77.2 37.2H20V31.5C20 29.3 21.8 27.5 24 27.5M24.6 31C23.8 31 23.1 31.7 23.1 32.5S23.8 34 24.6 34 26.1 33.3 26.1 32.5 25.4 31 24.6 31M30 31C29.1 31 28.5 31.7 28.5 32.5S29.2 34 30 34 31.5 33.3 31.5 32.5 30.9 31 30 31M35.4 31C34.6 31 33.9 31.7 33.9 32.5S34.6 34 35.4 34 36.9 33.3 36.9 32.5 36.2 31 35.4 31M24.6 32C24.8 32 25.1 32.2 25.1 32.5S24.9 33 24.6 33 24.1 32.8 24.1 32.5 24.3 32 24.6 32M30 32C30.2 32 30.5 32.2 30.5 32.5S30.3 33 30 33 29.5 32.8 29.5 32.5 29.7 32 30 32M35.4 32C35.6 32 35.9 32.2 35.9 32.5S35.7 33 35.4 33 34.9 32.8 34.9 32.5 35.1 32 35.4 32M20 39.2H76.2V73.8C76.2 74.2 76.4 74.5 76.8 74.7S77.6 74.8 77.9 74.5L87 65.4 96.1 74.5C96.3 74.7 96.5 74.8 96.8 74.8 96.9 74.8 97 74.7 97.2 74.7 97.6 74.6 97.8 74.2 97.8 73.8V39.2H108V96.5C108 98.7 106.2 100.5 104 100.5H24C21.8 100.5 20 98.7 20 96.5z" fill="#5d60a9" data-fill-palette-color="accent"></path><path d="M63 73.7" fill="#5d60a9" data-fill-palette-color="accent"></path><path d="M67.8 53.4" fill="#5d60a9" data-fill-palette-color="accent"></path><path d="M72.8 78.3" fill="#5d60a9" data-fill-palette-color="accent"></path><path d="M61.1 68.5" fill="#5d60a9" data-fill-palette-color="accent"></path><path d="M51.3 58.4" fill="#5d60a9" data-fill-palette-color="accent"></path><path d="M90.7 69.5" fill="#5d60a9" data-fill-palette-color="accent"></path><path d="M37.3 69.5" fill="#5d60a9" data-fill-palette-color="accent"></path></svg></g></svg></g></svg></g></svg></g></svg></g></svg></g><defs></defs></svg><rect width="95.481" height="79.91344565217392" fill="none" stroke="none" visibility="hidden"></rect></g></svg></g></svg>