<svg xmlns="http://www.w3.org/2000/svg" xmlns:xlink="http://www.w3.org/1999/xlink" width="1080" zoomAndPan="magnify" viewBox="0 0 810 809.999993" height="1080" preserveAspectRatio="xMidYMid meet" version="1.0"><defs><filter x="0%" y="0%" width="100%" height="100%" id="b793d7c0c6"><feColorMatrix values="0 0 0 0 1 0 0 0 0 1 0 0 0 0 1 0 0 0 1 0" color-interpolation-filters="sRGB"/></filter><mask id="c55901044a"><g filter="url(#b793d7c0c6)"><rect x="-81" width="972" fill="#000000" y="-80.999999" height="971.999992" fill-opacity="0.05"/></g></mask><mask id="58a7483ba2"><g filter="url(#b793d7c0c6)"><rect x="-178.2" width="1166.4" fill="#000000" y="-178.199998" height="1166.39999" fill-opacity="0.6"/></g></mask><clipPath id="2e2dd506ee"><path d="M 60 0 L 64 0 L 64 810 L 60 810 Z M 60 0 " clip-rule="nonzero"/></clipPath><clipPath id="60318008a7"><path d="M 127 0 L 132 0 L 132 810 L 127 810 Z M 127 0 " clip-rule="nonzero"/></clipPath><clipPath id="2e87ff4286"><path d="M 195 0 L 199 0 L 199 810 L 195 810 Z M 195 0 " clip-rule="nonzero"/></clipPath><clipPath id="3b283979d9"><path d="M 262 0 L 266 0 L 266 810 L 262 810 Z M 262 0 " clip-rule="nonzero"/></clipPath><clipPath id="12553c8182"><path d="M 329 0 L 334 0 L 334 810 L 329 810 Z M 329 0 " clip-rule="nonzero"/></clipPath><clipPath id="9aeab21cb0"><path d="M 397 0 L 401 0 L 401 810 L 397 810 Z M 397 0 " clip-rule="nonzero"/></clipPath><clipPath id="7244dfc818"><path d="M 464 0 L 469 0 L 469 810 L 464 810 Z M 464 0 " clip-rule="nonzero"/></clipPath><clipPath id="4516dcb217"><path d="M 532 0 L 536 0 L 536 810 L 532 810 Z M 532 0 " clip-rule="nonzero"/></clipPath><clipPath id="94b8ff8244"><path d="M 599 0 L 603 0 L 603 810 L 599 810 Z M 599 0 " clip-rule="nonzero"/></clipPath><clipPath id="b2577eeb24"><path d="M 666 0 L 671 0 L 671 810 L 666 810 Z M 666 0 " clip-rule="nonzero"/></clipPath><clipPath id="3f63a6d620"><path d="M 734 0 L 738 0 L 738 810 L 734 810 Z M 734 0 " clip-rule="nonzero"/></clipPath><clipPath id="c0830ca8f5"><rect x="0" width="741" y="0" height="810"/></clipPath><mask id="6eb8004bf7"><g filter="url(#b793d7c0c6)"><rect x="-178.2" width="1166.4" fill="#000000" y="-178.199998" height="1166.39999" fill-opacity="0.6"/></g></mask><clipPath id="ae85c35dec"><path d="M 0 806 L 810 806 L 810 810 L 0 810 Z M 0 806 " clip-rule="nonzero"/></clipPath><clipPath id="20e7cd5c58"><path d="M 0 739 L 810 739 L 810 743 L 0 743 Z M 0 739 " clip-rule="nonzero"/></clipPath><clipPath id="2fcc19e206"><path d="M 0 671 L 810 671 L 810 676 L 0 676 Z M 0 671 " clip-rule="nonzero"/></clipPath><clipPath id="76e98b9b38"><path d="M 0 604 L 810 604 L 810 608 L 0 608 Z M 0 604 " clip-rule="nonzero"/></clipPath><clipPath id="42a02e072d"><path d="M 0 536 L 810 536 L 810 541 L 0 541 Z M 0 536 " clip-rule="nonzero"/></clipPath><clipPath id="4bf54e9ba5"><path d="M 0 469 L 810 469 L 810 473 L 0 473 Z M 0 469 " clip-rule="nonzero"/></clipPath><clipPath id="71122f9bd2"><path d="M 0 402 L 810 402 L 810 406 L 0 406 Z M 0 402 " clip-rule="nonzero"/></clipPath><clipPath id="468ff509d1"><path d="M 0 334 L 810 334 L 810 339 L 0 339 Z M 0 334 " clip-rule="nonzero"/></clipPath><clipPath id="4209e573bf"><path d="M 0 267 L 810 267 L 810 271 L 0 271 Z M 0 267 " clip-rule="nonzero"/></clipPath><clipPath id="91d338825d"><path d="M 0 199 L 810 199 L 810 204 L 0 204 Z M 0 199 " clip-rule="nonzero"/></clipPath><clipPath id="bf15cf8530"><path d="M 0 132 L 810 132 L 810 136 L 0 136 Z M 0 132 " clip-rule="nonzero"/></clipPath><clipPath id="af4a742a1b"><path d="M 0 64 L 810 64 L 810 69 L 0 69 Z M 0 64 " clip-rule="nonzero"/></clipPath><clipPath id="6462e237a0"><path d="M 0 0 L 810 0 L 810 1 L 0 1 Z M 0 0 " clip-rule="nonzero"/></clipPath><clipPath id="50dd967a4b"><rect x="0" width="810" y="0" height="810"/></clipPath><clipPath id="8889c037f7"><rect x="0" width="810" y="0" height="810"/></clipPath></defs><g mask="url(#c55901044a)"><g transform="matrix(1, 0, 0, 1, 0, 0.000000000000039746)"><g clip-path="url(#8889c037f7)"><g mask="url(#58a7483ba2)"><g transform="matrix(1, 0, 0, 1, 0, 0.000000000000039746)"><g clip-path="url(#c0830ca8f5)"><g clip-path="url(#2e2dd506ee)"><path fill="#292929" d="M 60.078125 -104.546875 L 63.566406 -104.546875 L 63.566406 960.6875 L 60.078125 960.6875 Z M 60.078125 -104.546875 " fill-opacity="1" fill-rule="nonzero"/></g><g clip-path="url(#60318008a7)"><path fill="#292929" d="M 127.550781 -104.546875 L 131.035156 -104.546875 L 131.035156 960.6875 L 127.550781 960.6875 Z M 127.550781 -104.546875 " fill-opacity="1" fill-rule="nonzero"/></g><g clip-path="url(#2e87ff4286)"><path fill="#292929" d="M 195.019531 -104.546875 L 198.507812 -104.546875 L 198.507812 960.6875 L 195.019531 960.6875 Z M 195.019531 -104.546875 " fill-opacity="1" fill-rule="nonzero"/></g><g clip-path="url(#3b283979d9)"><path fill="#292929" d="M 262.492188 -104.546875 L 265.976562 -104.546875 L 265.976562 960.6875 L 262.492188 960.6875 Z M 262.492188 -104.546875 " fill-opacity="1" fill-rule="nonzero"/></g><g clip-path="url(#12553c8182)"><path fill="#292929" d="M 329.785156 -104.546875 L 333.273438 -104.546875 L 333.273438 960.6875 L 329.785156 960.6875 Z M 329.785156 -104.546875 " fill-opacity="1" fill-rule="nonzero"/></g><g clip-path="url(#9aeab21cb0)"><path fill="#292929" d="M 397.257812 -104.546875 L 400.742188 -104.546875 L 400.742188 960.6875 L 397.257812 960.6875 Z M 397.257812 -104.546875 " fill-opacity="1" fill-rule="nonzero"/></g><g clip-path="url(#7244dfc818)"><path fill="#292929" d="M 464.726562 -104.546875 L 468.214844 -104.546875 L 468.214844 960.6875 L 464.726562 960.6875 Z M 464.726562 -104.546875 " fill-opacity="1" fill-rule="nonzero"/></g><g clip-path="url(#4516dcb217)"><path fill="#292929" d="M 532.199219 -104.546875 L 535.683594 -104.546875 L 535.683594 960.6875 L 532.199219 960.6875 Z M 532.199219 -104.546875 " fill-opacity="1" fill-rule="nonzero"/></g><g clip-path="url(#94b8ff8244)"><path fill="#292929" d="M 599.496094 -104.546875 L 602.980469 -104.546875 L 602.980469 960.6875 L 599.496094 960.6875 Z M 599.496094 -104.546875 " fill-opacity="1" fill-rule="nonzero"/></g><g clip-path="url(#b2577eeb24)"><path fill="#292929" d="M 666.964844 -104.546875 L 670.453125 -104.546875 L 670.453125 960.6875 L 666.964844 960.6875 Z M 666.964844 -104.546875 " fill-opacity="1" fill-rule="nonzero"/></g><g clip-path="url(#3f63a6d620)"><path fill="#292929" d="M 734.4375 -104.546875 L 737.921875 -104.546875 L 737.921875 960.6875 L 734.4375 960.6875 Z M 734.4375 -104.546875 " fill-opacity="1" fill-rule="nonzero"/></g></g></g></g><g mask="url(#6eb8004bf7)"><g transform="matrix(1, 0, 0, 1, 0, 0.000000000000039746)"><g clip-path="url(#50dd967a4b)"><g clip-path="url(#ae85c35dec)"><path fill="#292929" d="M -201.085938 810.054688 L -201.085938 806.570312 L 864.148438 806.570312 L 864.148438 810.054688 Z M -201.085938 810.054688 " fill-opacity="1" fill-rule="nonzero"/></g><g clip-path="url(#20e7cd5c58)"><path fill="#292929" d="M -201.085938 742.585938 L -201.085938 739.097656 L 864.148438 739.097656 L 864.148438 742.585938 Z M -201.085938 742.585938 " fill-opacity="1" fill-rule="nonzero"/></g><g clip-path="url(#2fcc19e206)"><path fill="#292929" d="M -201.085938 675.289062 L -201.085938 671.800781 L 864.148438 671.800781 L 864.148438 675.289062 Z M -201.085938 675.289062 " fill-opacity="1" fill-rule="nonzero"/></g><g clip-path="url(#76e98b9b38)"><path fill="#292929" d="M -201.085938 607.816406 L -201.085938 604.332031 L 864.148438 604.332031 L 864.148438 607.816406 Z M -201.085938 607.816406 " fill-opacity="1" fill-rule="nonzero"/></g><g clip-path="url(#42a02e072d)"><path fill="#292929" d="M -201.085938 540.347656 L -201.085938 536.859375 L 864.148438 536.859375 L 864.148438 540.347656 Z M -201.085938 540.347656 " fill-opacity="1" fill-rule="nonzero"/></g><g clip-path="url(#4bf54e9ba5)"><path fill="#292929" d="M -201.085938 472.875 L -201.085938 469.390625 L 864.148438 469.390625 L 864.148438 472.875 Z M -201.085938 472.875 " fill-opacity="1" fill-rule="nonzero"/></g><g clip-path="url(#71122f9bd2)"><path fill="#292929" d="M -201.085938 405.582031 L -201.085938 402.09375 L 864.148438 402.09375 L 864.148438 405.582031 Z M -201.085938 405.582031 " fill-opacity="1" fill-rule="nonzero"/></g><g clip-path="url(#468ff509d1)"><path fill="#292929" d="M -201.085938 338.109375 L -201.085938 334.621094 L 864.148438 334.621094 L 864.148438 338.109375 Z M -201.085938 338.109375 " fill-opacity="1" fill-rule="nonzero"/></g><g clip-path="url(#4209e573bf)"><path fill="#292929" d="M -201.085938 270.640625 L -201.085938 267.152344 L 864.148438 267.152344 L 864.148438 270.640625 Z M -201.085938 270.640625 " fill-opacity="1" fill-rule="nonzero"/></g><g clip-path="url(#91d338825d)"><path fill="#292929" d="M -201.085938 203.34375 L -201.085938 199.855469 L 864.148438 199.855469 L 864.148438 203.34375 Z M -201.085938 203.34375 " fill-opacity="1" fill-rule="nonzero"/></g><g clip-path="url(#bf15cf8530)"><path fill="#292929" d="M -201.085938 135.871094 L -201.085938 132.386719 L 864.148438 132.386719 L 864.148438 135.871094 Z M -201.085938 135.871094 " fill-opacity="1" fill-rule="nonzero"/></g><g clip-path="url(#af4a742a1b)"><path fill="#292929" d="M -201.085938 68.402344 L -201.085938 64.914062 L 864.148438 64.914062 L 864.148438 68.402344 Z M -201.085938 68.402344 " fill-opacity="1" fill-rule="nonzero"/></g><g clip-path="url(#6462e237a0)"><path fill="#292929" d="M -201.085938 0.929688 L -201.085938 -2.554688 L 864.148438 -2.554688 L 864.148438 0.929688 Z M -201.085938 0.929688 " fill-opacity="1" fill-rule="nonzero"/></g></g></g></g></g></g></g></svg>