<svg xmlns="http://www.w3.org/2000/svg" xmlns:xlink="http://www.w3.org/1999/xlink" width="500" zoomAndPan="magnify" viewBox="0 0 375 374.999991" height="500" preserveAspectRatio="xMidYMid meet" version="1.0"><defs><g/><clipPath id="4f0424f93b"><path d="M 0 12.453125 L 111.15625 12.453125 L 111.15625 135.941406 L 0 135.941406 Z M 0 12.453125 " clip-rule="nonzero"/></clipPath><clipPath id="69fe18382e"><path d="M 49.414062 12.453125 C 15.3125 12.453125 -12.332031 40.097656 -12.332031 74.195312 C -12.332031 108.296875 15.3125 135.941406 49.414062 135.941406 C 83.515625 135.941406 111.15625 108.296875 111.15625 74.195312 C 111.15625 40.097656 83.515625 12.453125 49.414062 12.453125 Z M 49.414062 12.453125 " clip-rule="nonzero"/></clipPath><clipPath id="c560493ed5"><path d="M 266.058594 237.945312 L 335.144531 237.945312 L 335.144531 307.03125 L 266.058594 307.03125 Z M 266.058594 237.945312 " clip-rule="nonzero"/></clipPath><clipPath id="ee8b4a25d3"><path d="M 300.601562 237.945312 C 281.523438 237.945312 266.058594 253.410156 266.058594 272.488281 C 266.058594 291.5625 281.523438 307.03125 300.601562 307.03125 C 319.679688 307.03125 335.144531 291.5625 335.144531 272.488281 C 335.144531 253.410156 319.679688 237.945312 300.601562 237.945312 Z M 300.601562 237.945312 " clip-rule="nonzero"/></clipPath><clipPath id="b315e287b6"><path d="M 286.011719 257.894531 L 315.191406 257.894531 L 315.191406 287.078125 L 286.011719 287.078125 Z M 286.011719 257.894531 " clip-rule="nonzero"/></clipPath><clipPath id="bf25231ad1"><path d="M 300.601562 257.894531 C 292.542969 257.894531 286.011719 264.429688 286.011719 272.488281 C 286.011719 280.542969 292.542969 287.078125 300.601562 287.078125 C 308.660156 287.078125 315.191406 280.542969 315.191406 272.488281 C 315.191406 264.429688 308.660156 257.894531 300.601562 257.894531 Z M 300.601562 257.894531 " clip-rule="nonzero"/></clipPath></defs><rect x="-37.5" width="450" fill="#ffffff" y="-37.499999" height="449.999989" fill-opacity="1"/><rect x="-37.5" width="450" fill="#ffffff" y="-37.499999" height="449.999989" fill-opacity="1"/><g fill="#43addf" fill-opacity="1"><g transform="translate(43.946794, 283.513954)"><g><path d="M 59.734375 -79.71875 L 59.734375 0 L 14.453125 0 L 14.453125 -198.703125 L 59.734375 -198.703125 L 59.734375 -119.453125 L 123.796875 -119.453125 L 123.796875 -198.703125 L 169.078125 -198.703125 L 169.078125 0 L 123.796875 0 L 123.796875 -79.71875 Z M 59.734375 -79.71875 "/></g></g></g><g clip-path="url(#4f0424f93b)"><g clip-path="url(#69fe18382e)"><path fill="#ffffff" d="M -12.332031 12.453125 L 111.15625 12.453125 L 111.15625 135.941406 L -12.332031 135.941406 Z M -12.332031 12.453125 " fill-opacity="1" fill-rule="nonzero"/></g></g><g fill="#43addf" fill-opacity="1"><g transform="translate(159.06576, 283.513954)"><g><path d="M 14.453125 -198.703125 L 76.109375 -198.703125 C 94.734375 -198.703125 109.582031 -194.726562 120.65625 -186.78125 C 131.738281 -178.832031 137.28125 -165.945312 137.28125 -148.125 C 137.28125 -128.207031 129.007812 -113.992188 112.46875 -105.484375 C 140.726562 -100.503906 154.859375 -83.804688 154.859375 -55.390625 C 154.859375 -38.691406 149.078125 -25.285156 137.515625 -15.171875 C 125.960938 -5.054688 110.066406 0 89.828125 0 L 14.453125 0 Z M 59.734375 -120.90625 L 63.34375 -120.90625 C 73.457031 -120.90625 81.003906 -122.671875 85.984375 -126.203125 C 90.960938 -129.734375 93.453125 -135.515625 93.453125 -143.546875 C 93.453125 -157.035156 83.414062 -163.78125 63.34375 -163.78125 L 59.734375 -163.78125 Z M 59.734375 -34.921875 L 73.9375 -34.921875 C 96.09375 -34.921875 107.171875 -42.304688 107.171875 -57.078125 C 107.171875 -65.910156 104.398438 -72.253906 98.859375 -76.109375 C 93.328125 -79.960938 85.019531 -81.890625 73.9375 -81.890625 L 59.734375 -81.890625 Z M 59.734375 -34.921875 "/></g></g></g><g clip-path="url(#c560493ed5)"><g clip-path="url(#ee8b4a25d3)"><path fill="#ffffff" d="M 266.058594 237.945312 L 335.144531 237.945312 L 335.144531 307.03125 L 266.058594 307.03125 Z M 266.058594 237.945312 " fill-opacity="1" fill-rule="nonzero"/></g></g><g clip-path="url(#b315e287b6)"><g clip-path="url(#bf25231ad1)"><path fill="#43addf" d="M 286.011719 257.894531 L 315.191406 257.894531 L 315.191406 287.078125 L 286.011719 287.078125 Z M 286.011719 257.894531 " fill-opacity="1" fill-rule="nonzero"/></g></g></svg>