<svg xmlns="http://www.w3.org/2000/svg" xmlns:xlink="http://www.w3.org/1999/xlink" width="500" zoomAndPan="magnify" viewBox="0 0 375 374.999991" height="500" preserveAspectRatio="xMidYMid meet" version="1.0"><defs><g/><clipPath id="63cd32a09c"><path d="M 0 0 L 89.738281 0 L 89.738281 121.476562 L 0 121.476562 Z M 0 0 " clip-rule="nonzero"/></clipPath><clipPath id="43b37db8f4"><path d="M 10.671875 -36.65625 C -32.992188 -36.65625 -68.394531 -1.257812 -68.394531 42.410156 C -68.394531 86.078125 -32.992188 121.476562 10.671875 121.476562 C 54.339844 121.476562 89.738281 86.078125 89.738281 42.410156 C 89.738281 -1.257812 54.339844 -36.65625 10.671875 -36.65625 Z M 10.671875 -36.65625 " clip-rule="nonzero"/></clipPath><clipPath id="7bf26715ba"><path d="M 288.097656 252.097656 L 375 252.097656 L 375 340.5625 L 288.097656 340.5625 Z M 288.097656 252.097656 " clip-rule="nonzero"/></clipPath><clipPath id="569ce11b4c"><path d="M 332.332031 252.097656 C 307.902344 252.097656 288.097656 271.898438 288.097656 296.328125 C 288.097656 320.757812 307.902344 340.5625 332.332031 340.5625 C 356.761719 340.5625 376.566406 320.757812 376.566406 296.328125 C 376.566406 271.898438 356.761719 252.097656 332.332031 252.097656 Z M 332.332031 252.097656 " clip-rule="nonzero"/></clipPath><clipPath id="40eadf9a85"><path d="M 313.648438 277.644531 L 351.015625 277.644531 L 351.015625 315.011719 L 313.648438 315.011719 Z M 313.648438 277.644531 " clip-rule="nonzero"/></clipPath><clipPath id="32e049aed2"><path d="M 332.332031 277.644531 C 322.011719 277.644531 313.648438 286.011719 313.648438 296.328125 C 313.648438 306.648438 322.011719 315.011719 332.332031 315.011719 C 342.648438 315.011719 351.015625 306.648438 351.015625 296.328125 C 351.015625 286.011719 342.648438 277.644531 332.332031 277.644531 Z M 332.332031 277.644531 " clip-rule="nonzero"/></clipPath></defs><rect x="-37.5" width="450" fill="#ffffff" y="-37.499999" height="449.999989" fill-opacity="1"/><rect x="-37.5" width="450" fill="#f1f3f5" y="-37.499999" height="449.999989" fill-opacity="1"/><g fill="#43addf" fill-opacity="1"><g transform="translate(3.673057, 310.450593)"><g><path d="M 76.484375 -102.078125 L 76.484375 0 L 18.5 0 L 18.5 -254.4375 L 76.484375 -254.4375 L 76.484375 -152.96875 L 158.515625 -152.96875 L 158.515625 -254.4375 L 216.5 -254.4375 L 216.5 0 L 158.515625 0 L 158.515625 -102.078125 Z M 76.484375 -102.078125 "/></g></g></g><g clip-path="url(#63cd32a09c)"><g clip-path="url(#43b37db8f4)"><path fill="#f1f3f5" d="M -68.394531 -36.65625 L 89.738281 -36.65625 L 89.738281 121.476562 L -68.394531 121.476562 Z M -68.394531 -36.65625 " fill-opacity="1" fill-rule="nonzero"/></g></g><g fill="#43addf" fill-opacity="1"><g transform="translate(151.088553, 310.450593)"><g><path d="M 18.5 -254.4375 L 97.453125 -254.4375 C 121.304688 -254.4375 140.328125 -249.347656 154.515625 -239.171875 C 168.703125 -228.992188 175.796875 -212.492188 175.796875 -189.671875 C 175.796875 -164.171875 165.207031 -145.972656 144.03125 -135.078125 C 180.21875 -128.703125 198.3125 -107.320312 198.3125 -70.9375 C 198.3125 -49.550781 190.90625 -32.378906 176.09375 -19.421875 C 161.289062 -6.472656 140.9375 0 115.03125 0 L 18.5 0 Z M 76.484375 -154.8125 L 81.109375 -154.8125 C 94.066406 -154.8125 103.726562 -157.070312 110.09375 -161.59375 C 116.46875 -166.125 119.65625 -173.53125 119.65625 -183.8125 C 119.65625 -201.082031 106.804688 -209.71875 81.109375 -209.71875 L 76.484375 -209.71875 Z M 76.484375 -44.71875 L 94.6875 -44.71875 C 123.050781 -44.71875 137.234375 -54.175781 137.234375 -73.09375 C 137.234375 -84.394531 133.6875 -92.515625 126.59375 -97.453125 C 119.5 -102.390625 108.863281 -104.859375 94.6875 -104.859375 L 76.484375 -104.859375 Z M 76.484375 -44.71875 "/></g></g></g><g clip-path="url(#7bf26715ba)"><g clip-path="url(#569ce11b4c)"><path fill="#f1f3f5" d="M 288.097656 252.097656 L 376.566406 252.097656 L 376.566406 340.5625 L 288.097656 340.5625 Z M 288.097656 252.097656 " fill-opacity="1" fill-rule="nonzero"/></g></g><g clip-path="url(#40eadf9a85)"><g clip-path="url(#32e049aed2)"><path fill="#43addf" d="M 313.648438 277.644531 L 351.015625 277.644531 L 351.015625 315.011719 L 313.648438 315.011719 Z M 313.648438 277.644531 " fill-opacity="1" fill-rule="nonzero"/></g></g></svg>